<?xml version="1.0" encoding="UTF-8" standalone="no"?><!DOCTYPE svg PUBLIC "-//W3C//DTD SVG 1.1//EN" "http://www.w3.org/Graphics/SVG/1.1/DTD/svg11.dtd"><svg width="100%" height="100%" viewBox="0 0 155 124" version="1.1" xmlns="http://www.w3.org/2000/svg" xmlns:xlink="http://www.w3.org/1999/xlink" xml:space="preserve" xmlns:serif="http://www.serif.com/" style="fill-rule:evenodd;clip-rule:evenodd;stroke-linejoin:round;stroke-miterlimit:2;"><g id="_Image1_" serif:id="_Image1"><path d="M93.598,13.209c-0.747,-1.367 -1.992,-2.64 -3.098,-3.452c-1.293,-0.949 -2.402,-1.323 -2.402,-1.323l7.046,-4.742l1.765,-0.976c0.143,0 1.454,0.893 3.131,2.43c1.001,0.917 2.185,2.064 3.186,3.388c6.613,8.744 2.828,21.353 1,26.514c-3.923,11.075 -8.016,15.471 -10.926,18.468c-3.661,3.772 -8.286,6.765 -11.071,8.417c-4.453,2.64 -10.379,3.511 -12.454,4.214c-4.023,0.358 -3.967,0.282 -8.03,0.345c-4.186,0.096 -4.981,-0.953 -7.207,2.576c-0.15,0.238 -0.109,0.362 -0.62,1.65c-0.281,0.707 -3.152,8.077 -3.924,9.668c-1.018,2.101 -2.875,7.86 -4.365,11.222c-0.653,1.474 -5.036,10.997 -7.902,15.446c-2.791,4.333 -6.532,9.93 -9.462,11.732c-6.136,3.775 -13.914,6.931 -22.209,3.877c-3.299,-1.215 -5.429,-3.237 -5.867,-6.722c-0.535,-4.259 0.153,-6.366 1.029,-8.043c1.268,-2.428 2.441,-3.33 3.541,-4.197c1.136,-0.895 3.826,-1.382 4.58,-1.381c1.294,0.001 3.163,2.064 3.163,2.064c0,0 -1.456,1.467 -1.941,2.053c-0.589,0.712 -1.419,3.051 0.045,4.627c1.68,1.809 5.79,2.811 6.779,2.522c1.596,-0.466 5.443,-2.488 5.789,-2.911c1.381,-1.69 2.77,-4.189 3.529,-6.207c0.401,-1.067 3.487,-7.736 5.026,-11.963c1.384,-3.802 5.559,-16.507 7.11,-20.924c2.234,-6.364 5.199,-14.622 6.293,-17.259c1.222,-2.695 0.842,-2.824 2.337,-5.404c0.83,-1.433 0.46,-1.584 8.485,-18.881c0.461,-0.736 5.012,-8 5.93,-9.091c6.105,-6.497 5.761,-6.827 13.006,-12.087c0.657,-0.491 1.065,-0.756 1.324,-0.907c0.383,-0.223 0.44,-0.197 0.492,-0.287c0.066,-0.116 2.322,-0.83 2.261,-0.886c-0.456,-0.423 -4.069,-0.444 -6.108,-0.497c-2.039,-0.053 -4.462,0.032 -6.124,0.177c-1.299,0.114 -5.253,1.248 -6.491,1.659c-2.169,0.721 -4.579,1.745 -6.521,2.664c-1.768,0.837 -3.627,2.007 -5.13,2.85c-1.299,0.729 -6.133,3.624 -7.248,4.615c-3.209,2.853 -7.953,7.554 -12.008,12.504c-2.767,3.378 -6.491,12.754 -6.929,16.777c-0.337,3.099 -0.209,5.986 0.19,6.547c1.983,2.788 3.745,2.263 8.039,2.187c3.643,-1.954 3.405,-1.791 3.179,0.824c-0.826,1.297 -0.671,1.02 -1.569,2.233c-1.266,1.71 -1.94,2.02 -2.562,2.78c-0.608,0.743 -1.764,1.484 -3.342,2.618c-3.486,0.691 -3.425,0.631 -3.72,0.702c-6.136,0.172 -8.418,0.516 -11.181,-2.158c-1.369,-1.325 -3.103,-4.138 -3.68,-6.587c-0.629,-2.668 -0.439,-7.232 -0.092,-9.423c0.353,-2.227 2.449,-7.208 2.792,-7.874c0.344,-0.667 0.919,-1.669 1.308,-2.312c0.681,-1.125 1.838,-3.313 3.054,-4.749c1.593,-1.881 9.34,-10.758 15.19,-14.664c3.121,-2.084 7.986,-5.517 12.79,-7.963c6.199,-3.157 12.336,-5.191 14.914,-6.012c9.448,-3.011 13.798,-3.44 14.505,-3.517c3.571,-0.39 15.225,-0.028 18.429,0.644c0.463,0.097 3.07,0.698 4.102,1.031c0.716,0.231 2.157,0.881 2.157,0.881l-1.765,0.976l-7.046,4.742c0,0 -0.513,-0.234 -1.388,-0.285c-1.146,-0.067 -3.2,0.356 -3.2,0.356c0,0 -2.049,1.369 -2.937,2.161c-0.912,0.813 -1.526,1.541 -2.535,2.718c-1.219,1.424 -5.22,9.327 -5.358,9.42c-3.797,7.373 -3.377,7.562 -3.749,8.178c-0.782,1.294 -2.924,6.913 -4.691,11.712c-1.402,3.807 -2.569,7.098 -2.634,7.303c-3.279,10.318 -3.625,10.195 -3.792,11.12c-0.214,1.18 10.763,-1.889 14.555,-3.385c3.074,-1.212 8.198,-5.587 8.198,-5.587c3.092,-3.439 4.711,-4.566 10.355,-15.048c5.021,-9.325 6.602,-17.674 3.042,-23.23c-0.145,-0.226 -0.252,-0.451 -0.366,-0.66Z" style="fill:#163464;fill-opacity:0.98;"/><path d="M132.403,1.144c0.264,-0.089 3.672,-1.063 6.587,-1.139c2.935,-0.076 5.378,0.745 5.565,0.7c0.213,-0.051 1.383,0.313 2.629,0.825c1.551,0.637 5.444,2.734 6.315,5.095c1.884,5.105 1.875,10.29 0.629,14.875c-0.853,3.14 -5.489,7.113 -5.489,7.113c0,0 -4.996,2.174 -8.538,1.311c-0.475,-0.388 5.194,-5.663 5.992,-8.355c0.426,-1.436 0.974,-2.202 1.062,-6.02c0.046,-1.979 -0.957,-6 -3.648,-7.458c-2.428,-1.315 -6.741,-1.014 -8.796,0.118c-1.313,0.723 -3.511,2.593 -3.605,2.671c-2.516,2.077 -6.066,8.795 -6.516,12.496c-0.304,2.507 -1.539,10.186 0.658,15.258c2.738,6.322 13.636,18.805 15.77,22.672c2.448,4.435 6.063,15.069 3.741,25.72c-1.297,5.951 -5.764,15.579 -12.113,22.776c-4.52,5.123 -11.412,9.013 -12.388,9.468c-1.574,0.734 -8.155,3.433 -14.019,4.251c-7.133,0.995 -14.071,-0.109 -20.637,-2.234c-11.429,-3.7 -14.48,-19.422 -14.053,-24.865c0.686,-8.731 8.441,-19.149 11.144,-21.576c3.341,-3 7.729,-6.15 12.244,-7.532c3.482,-1.066 7.496,-0.774 8.336,-0.451c0.168,0.065 4.606,2.188 5.895,5.2c1.535,3.586 -0.168,8.267 -1.876,9.957c-1.928,1.908 -3.577,6.54 -4.535,3.848c-0.15,-0.422 -0.178,-5.857 -2.146,-7.695c-2.046,-1.911 -6.061,-0.189 -7.726,1.468c-8.046,8.008 -6.546,16.183 -6.539,19.568c0.002,0.776 0.132,1.503 0.342,2.174c0.426,1.356 1.986,5.697 5.11,7.778c1.906,1.27 10.995,2.958 18.499,0.492c3.564,-1.171 12.762,-8.801 16.487,-17.691c1.665,-3.973 3.013,-13.508 0.194,-21.093c-1.605,-4.318 -10.457,-14.387 -14.656,-23.295c-1.804,-3.826 -2.805,-14.557 -0.139,-23.414c2.472,-8.211 8.479,-14.643 10.53,-16.648c0.593,-0.716 3.557,-4.292 9.687,-6.37Z" style="fill:#1a3867;fill-opacity:0.98;"/><path d="M139.002,4.143l2.017,-0.395l-1.016,0.86c-2.046,0.233 -1.998,0.223 -4.004,0.542c1.001,-0.336 2.002,-0.671 3.003,-1.007Z" style="fill:#2c3e5b;fill-opacity:0.29;"/><path d="M95.256,15.15c0.53,2.027 0.577,1.97 0.943,4.003c-0.314,-1.334 -0.629,-2.669 -0.943,-4.003Z" style="fill:#253349;fill-opacity:0.07;"/><path d="M73.793,104.466c1.515,0.345 1.532,0.461 2.074,1.924c-1.108,-0.891 -1.082,-0.86 -2.074,-1.924Z" style="fill:#435470;fill-opacity:0.35;"/><path d="M102.783,72.59c0.183,0.102 1.294,-0.735 2.099,1.769c-0.158,-0.153 -1.023,-0.99 -2.099,-1.769Z" style="fill:#35455f;fill-opacity:0.28;"/><path d="M123.973,59.294c0.564,0.405 1.128,0.811 1.692,1.216c-1.03,-0.356 -0.978,-0.409 -1.692,-1.216Z" style="fill:#546581;fill-opacity:0.29;"/><path d="M152.245,25.349c-0.418,0.586 -0.836,1.171 -1.254,1.757c0.308,-1.072 0.366,-1.028 1.254,-1.757Z" style="fill:#445878;fill-opacity:0.33;"/><path d="M122.786,56.386c0.334,0.67 0.667,1.341 1.001,2.011c-0.334,-0.67 -0.667,-1.341 -1.001,-2.011Z" style="fill:#495972;fill-opacity:0.36;"/><path d="M48.719,87.456c-0.405,0.625 -0.809,1.249 -1.214,1.874c0.405,-0.625 0.809,-1.249 1.214,-1.874Z" style="fill:#314667;fill-opacity:0.4;"/><path d="M133.831,40.371c0.397,0.618 0.793,1.235 1.19,1.853c-0.397,-0.618 -0.793,-1.235 -1.19,-1.853Z" style="fill:#30466a;fill-opacity:0.36;"/><path d="M141.987,3.33l-0.968,0.418l-2.017,0.395c1.473,-0.588 1.396,-0.697 2.985,-0.813Z" style="fill:#394f71;fill-opacity:0.38;"/><path d="M145.981,6.139c0.318,0.43 0.578,0.21 1.127,1.91c-0.756,-0.872 -0.802,-0.818 -1.127,-1.91Z" style="fill:#3d506f;fill-opacity:0.39;"/></g></svg>
